sfk_cyclingleg_x_-0.09_y_-0.05_states
version=1
nRows=13
nColumns=53
inDegrees=yes

# SIMM Motion File Header:
name sfk_cyclingleg_x_-0.09_y_-0.05_states
datacolumns 53
datarows 13
otherdata 1
range 0.00000000 0.03911587
endheader
time	/jointset/bb/crank_angle/value	/jointset/bb/crank_angle/speed	/jointset/spindle/pedal_angle_r/value	/jointset/spindle/pedal_angle_r/speed	/jointset/ground_pelvis/pelvis_tilt/value	/jointset/ground_pelvis/pelvis_tilt/speed	/jointset/ground_pelvis/pelvis_list/value	/jointset/ground_pelvis/pelvis_list/speed	/jointset/ground_pelvis/pelvis_rotation/value	/jointset/ground_pelvis/pelvis_rotation/speed	/jointset/ground_pelvis/pelvis_tx/value	/jointset/ground_pelvis/pelvis_tx/speed	/jointset/ground_pelvis/pelvis_ty/value	/jointset/ground_pelvis/pelvis_ty/speed	/jointset/ground_pelvis/pelvis_tz/value	/jointset/ground_pelvis/pelvis_tz/speed	/jointset/hip_r/hip_angle_r/value	/jointset/hip_r/hip_angle_r/speed	/jointset/hip_r/hip_adduction_r/value	/jointset/hip_r/hip_adduction_r/speed	/jointset/hip_r/hip_rotation_r/value	/jointset/hip_r/hip_rotation_r/speed	/jointset/knee_r/knee_angle_r/value	/jointset/knee_r/knee_angle_r/speed	/jointset/knee_r/tib_tx_r/value	/jointset/knee_r/tib_tx_r/speed	/jointset/knee_r/tib_ty_r/value	/jointset/knee_r/tib_ty_r/speed	/jointset/tib_pat_r/pat_angle_r/value	/jointset/tib_pat_r/pat_angle_r/speed	/jointset/tib_pat_r/pat_tx_r/value	/jointset/tib_pat_r/pat_tx_r/speed	/jointset/tib_pat_r/pat_ty_r/value	/jointset/tib_pat_r/pat_ty_r/speed	/jointset/ankle_r/ankle_angle_r/value	/jointset/ankle_r/ankle_angle_r/speed	/jointset/subtalar_r/subtalar_angle_r/value	/jointset/subtalar_r/subtalar_angle_r/speed	/jointset/mtp_r/mtp_angle_r/value	/jointset/mtp_r/mtp_angle_r/speed	/forceset/bifemlh_r/activation	/forceset/bifemlh_r/fiber_length	/forceset/bifemsh_r/activation	/forceset/bifemsh_r/fiber_length	/forceset/glut_max2_r/activation	/forceset/glut_max2_r/fiber_length	/forceset/vas_int_r/activation	/forceset/vas_int_r/fiber_length	/forceset/med_gas_r/activation	/forceset/med_gas_r/fiber_length	/forceset/tib_ant_r/activation	/forceset/tib_ant_r/fiber_length
      0.00000000	    -10.13487855	   -480.13863232	      3.97547562	    610.58890925	      0.00000000	     -0.00000000	     -0.00000000	      0.00000000	      0.00000000	      0.00000000	     -0.09000000	      0.00000000	     -0.05000000	     -0.00000000	      0.00000000	     -0.00000000	     82.70966808	     33.39475459	      4.07221637	      1.42501467	     -3.87608053	     14.83864674	   -116.08390497	    142.22973356	     -0.00234213	      0.04891471	     -0.49479053	      0.04592140	     17.65102673	     -0.05606127	      0.02140922	      0.07013278	     -0.02428953	      0.01135168	     27.91324027	    -46.51530601	      0.00000000	     -0.00000000	      0.00000000	      0.00000000	      0.05000000	      0.13798669	      0.05000000	      0.14477111	      0.05000000	      0.15499320	      0.05000000	      0.16080880	      0.05000000	      0.12999054	      0.05000000	      0.11060921
      0.00111694	    -10.67116261	   -480.13863232	      4.65720271	    610.11975306	     -0.00000000	     -0.00000000	      0.00000000	      0.00000000	      0.00000000	      0.00000000	     -0.09000000	      0.00000000	     -0.05000000	     -0.00000000	     -0.00000000	     -0.00000000	     82.74576085	     31.23258279	      4.07381972	      1.44592521	     -3.85940918	     15.01279627	   -115.92388957	    144.29344933	     -0.00228721	      0.04942410	     -0.49473884	      0.04663328	     17.65095902	     -0.06525862	      0.02148806	      0.07103873	     -0.02427677	      0.01149233	     27.86106970	    -46.89943023	     -0.00000000	     -0.00000000	      0.00000000	     -0.00000000	      0.04920444	      0.13798758	      0.04920444	      0.14477329	      0.04920444	      0.15499431	      0.04920444	      0.16079647	      0.04920444	      0.12999230	      0.04920444	      0.11061078
      0.00551934	    -12.78492469	   -480.13863232	      7.33905276	    608.22797106	     -0.00000000	     -0.00000000	      0.00000000	      0.00000000	      0.00000000	      0.00000000	     -0.09000000	      0.00000000	     -0.05000000	      0.00000000	     -0.00000000	     -0.00000000	     82.86442854	     22.66764792	      4.08036284	      1.52594121	     -3.79185298	     15.67011979	   -115.27098325	    152.28123275	     -0.00206542	      0.05129942	     -0.49452742	      0.04940776	     17.65058493	     -0.10587293	      0.02180847	      0.07449233	     -0.02422500	      0.01202304	     27.65150970	    -48.26348044	      0.00000000	      0.00000000	      0.00000000	      0.00000000	      0.04620468	      0.13801027	      0.04620468	      0.14482080	      0.04620468	      0.15501877	      0.04620468	      0.16060411	      0.04620468	      0.13003488	      0.04620468	      0.11066196
      0.00992173	    -14.89868678	   -480.13863232	     10.01244683	    606.28097656	     -0.00000000	      0.00000000	      0.00000000	      0.00000000	      0.00000000	      0.00000000	     -0.09000000	      0.00000000	     -0.05000000	      0.00000000	     -0.00000000	     -0.00000000	     82.94527460	     14.05475318	      4.08724920	      1.60178374	     -3.72150436	     16.28150284	   -114.58343284	    160.03129893	     -0.00183584	      0.05296140	     -0.49430389	      0.05212981	     17.65001602	     -0.15384485	      0.02214367	      0.07775679	     -0.02417097	      0.01251475	     27.43646584	    -49.39155556	      0.00000000	      0.00000000	      0.00000000	      0.00000000	      0.04340856	      0.13806716	      0.04340856	      0.14491006	      0.04340856	      0.15506656	      0.04340856	      0.16028409	      0.04340856	      0.13011769	      0.04340856	      0.11082591
      0.01432413	    -17.01244886	   -480.13863232	     12.67717727	    604.29463932	      0.00000000	      0.00000000	      0.00000000	      0.00000000	      0.00000000	     -0.00000000	     -0.09000000	      0.00000000	     -0.05000000	      0.00000000	     -0.00000000	      0.00000000	     82.98814599	      5.42012738	      4.09445947	      1.67302267	     -3.64856375	     16.84783043	   -113.86229565	    167.53893573	     -0.00159942	      0.05440840	     -0.49406851	      0.05479636	     17.64922171	     -0.20766872	      0.02249282	      0.08083020	     -0.02411487	      0.01296591	     27.21696491	    -50.28941250	      0.00000000	      0.00000000	      0.00000000	      0.00000000	      0.04079984	      0.13815753	      0.04079984	      0.14501833	      0.04079984	      0.15512262	      0.04079984	      0.16002218	      0.04079984	      0.13021649	      0.04079984	      0.11107050
      0.01756479	    -18.56841163	   -480.13863232	     14.63309334	    602.81583408	      0.00000000	      0.00000000	      0.00000000	      0.00000000	      0.00000000	     -0.00000000	     -0.09000000	      0.00000000	     -0.05000000	      0.00000000	     -0.00000000	     -0.00000000	     82.99541141	     -0.93506861	      4.09996174	      1.72228909	     -3.59332949	     17.23659981	   -113.31062371	    172.90834369	     -0.00142157	      0.05533593	     -0.49388780	      0.05672201	     17.64848119	     -0.24966098	      0.02275826	      0.08296994	     -0.02407235	      0.01327128	     27.05312285	    -50.80740842	      0.00000000	      0.00000000	      0.00000000	      0.00000000	      0.03899068	      0.13823991	      0.03899068	      0.14510584	      0.03899068	      0.15516231	      0.03899068	      0.15975369	      0.03899068	      0.13029429	      0.03899068	      0.11126207
      0.02153256	    -20.47349387	   -480.13863232	     17.02132065	    600.99464908	      0.00000000	      0.00000000	      0.00000000	      0.00000000	     -0.00000000	     -0.00000000	     -0.09000000	      0.00000000	     -0.05000000	      0.00000000	     -0.00000000	      0.00000000	     82.97628886	     -8.69954733	      4.10690878	      1.77871203	     -3.52404548	     17.68104848	   -112.61181620	    179.29941692	     -0.00120001	      0.05631310	     -0.49365814	      0.05903485	     17.64738472	     -0.30342076	      0.02309243	      0.08544818	     -0.02401900	      0.01361343	     26.85053179	    -51.28199160	      0.00000000	      0.00000000	      0.00000000	      0.00000000	      0.03689520	      0.13834953	      0.03689520	      0.14522089	      0.03689520	      0.15520488	      0.03689520	      0.15948476	      0.03689520	      0.13039698	      0.03689520	      0.11149541
      0.02450895	    -21.90257196	   -480.13863232	     18.80807597	    599.62587917	      0.00000000	      0.00000000	      0.00000000	      0.00000000	     -0.00000000	     -0.00000000	     -0.09000000	      0.00000000	     -0.05000000	      0.00000000	     -0.00000000	      0.00000000	     82.94175418	    -14.50245443	      4.11226216	      1.81808859	     -3.47095202	     17.99229954	   -112.07118686	    183.96053194	     -0.00103146	      0.05693223	     -0.49347989	      0.06073618	     17.64641976	     -0.34517368	      0.02334940	      0.08720519	     -0.02397813	      0.01384666	     26.69750974	    -51.52642252	      0.00000000	      0.00000000	      0.00000000	      0.00000000	      0.03540463	      0.13843248	      0.03540463	      0.14531339	      0.03540463	      0.15523114	      0.03540463	      0.15921743	      0.03540463	      0.13047868	      0.03540463	      0.11167004
      0.02812404	    -23.63831714	   -480.13863232	     20.97277632	    597.96583235	      0.00000000	      0.00000000	      0.00000000	      0.00000000	     -0.00000000	     -0.00000000	     -0.09000000	      0.00000000	     -0.05000000	      0.00000000	     -0.00000000	      0.00000000	     82.87663767	    -21.51498365	      4.11891596	      1.86237729	     -3.40526147	     18.34566011	   -111.39614694	    189.46788399	     -0.00082448	      0.05755412	     -0.49325664	      0.06276245	     17.64507828	     -0.39718822	      0.02366834	      0.08922234	     -0.02392760	      0.01410238	     26.51088395	    -51.69953229	      0.00000000	      0.00000000	      0.00000000	      0.00000000	      0.03368228	      0.13852936	      0.03368228	      0.14543280	      0.03368228	      0.15525577	      0.03368228	      0.15895597	      0.03368228	      0.13058506	      0.03368228	      0.11188128
      0.03068867	    -24.86969405	   -480.13863232	     22.50483072	    596.79266901	      0.00000000	      0.00000000	      0.00000000	      0.00000000	     -0.00000000	     -0.00000000	     -0.09000000	      0.00000000	     -0.05000000	      0.00000000	     -0.00000000	     -0.00000000	     82.81511260	    -26.46022352	      4.12372988	      1.89137508	     -3.35790783	     18.58045037	   -110.90533560	    193.27235934	     -0.00067640	      0.05790966	     -0.49309387	      0.06417245	     17.64401158	     -0.43474784	      0.02389891	      0.09057619	     -0.02389122	      0.01426518	     26.37822440	    -51.74296529	      0.00000000	      0.00000000	      0.00000000	     -0.00000000	      0.03251597	      0.13859385	      0.03251597	      0.14552270	      0.03251597	      0.15526825	      0.03251597	      0.15870816	      0.03251597	      0.13066356	      0.03251597	      0.11203035
      0.03389487	    -26.40911613	   -480.13863232	     24.41592879	    595.33443942	      0.00000000	      0.00000000	      0.00000000	      0.00000000	     -0.00000000	     -0.00000000	     -0.09000000	      0.00000000	     -0.05000000	      0.00000000	     -0.00000000	     -0.00000000	     82.72041785	    -32.60131324	      4.12984835	      1.92473056	     -3.29788804	     18.85608201	   -110.27819681	    197.90885823	     -0.00049015	      0.05825543	     -0.49288534	      0.06590220	     17.64254171	     -0.48221695	      0.02419191	      0.09217951	     -0.02384519	      0.01444664	     26.21235564	    -51.70825076	      0.00000000	      0.00000000	      0.00000000	      0.00000000	      0.03111932	      0.13866845	      0.03111932	      0.14564096	      0.03111932	      0.15527795	      0.03111932	      0.15845700	      0.03111932	      0.13076977	      0.03111932	      0.11221551
      0.03650537	    -27.66251859	   -480.13863232	     25.96851011	    594.15615231	      0.00000000	      0.00000000	      0.00000000	      0.00000000	     -0.00000000	     -0.00000000	     -0.09000000	      0.00000000	     -0.05000000	      0.00000000	     -0.00000000	     -0.00000000	     82.62882799	    -37.56289868	      4.13490563	      1.94946999	     -3.24838709	     19.06631642	   -109.75673704	    201.58580554	     -0.00033779	      0.05845704	     -0.49271149	      0.06728283	     17.64123216	     -0.52109456	      0.02443417	      0.09341249	     -0.02380730	      0.01457608	     26.07748642	    -51.60967808	      0.00000000	      0.00000000	      0.00000000	     -0.00000000	      0.03003024	      0.13872384	      0.03003024	      0.14574252	      0.03003024	      0.15528105	      0.03003024	      0.15818664	      0.03003024	      0.13085459	      0.03003024	      0.11236511
      0.03911587	    -28.91592105	   -480.13863232	     27.51802800	    592.98768297	      0.00000000	      0.00000000	      0.00000000	      0.00000000	     -0.00000000	     -0.00000000	     -0.09000000	      0.00000000	     -0.05000000	      0.00000000	     -0.00000000	     -0.00000000	     82.52433541	    -42.48595336	      4.14002463	      1.97200845	     -3.19835344	     19.26428013	   -109.22579328	    205.17492034	     -0.00018500	      0.05858798	     -0.49253407	      0.06863801	     17.63982105	     -0.55999874	      0.02467956	      0.09458122	     -0.02376910	      0.01468890	     25.94295412	    -51.45050962	      0.00000000	      0.00000000	      0.00000000	     -0.00000000	      0.02898230	      0.13877427	      0.02898230	      0.14584876	      0.02898230	      0.15527864	      0.02898230	      0.15797891	      0.02898230	      0.13099563	      0.02898230	      0.11251351
